<svg xmlns="http://www.w3.org/2000/svg" width="64" height="64" viewBox="0 0 64 64"><g transform="translate(-453 -36)"><rect width="64" height="64" transform="translate(453 36)" fill="none"/><path d="M17.264,0H32.857c1.3,0,1.656.348,1.669,1.649.006.544.016,1.089-.009,1.633A1.366,1.366,0,0,1,33.643,4.7a.831.831,0,0,0-.371.588,1.3,1.3,0,0,1-1.3,1.278.713.713,0,0,0-.471.51c.1,4.734-.374,9.487.371,14.2.162,1.017.608,2,.692,3.02a22.521,22.521,0,0,1-.019,4.374c-.225,1.944-.911,3.857-.976,5.8-.159,4.762-.075,9.534-.1,14.3,0,.4.031.712.568.7.767-.019,1.07.467,1.232,1.151.066.271.352.482.512.737a4.177,4.177,0,0,1,.711,1.272,9.057,9.057,0,0,1,.025,2.016c-.037.946-.458,1.341-1.428,1.344Q24.044,56,15,56q-6.7,0-13.409-.009c-1.173,0-1.56-.414-1.566-1.6V52.675a1.36,1.36,0,0,1,.836-1.362.841.841,0,0,0,.4-.551c.1-.806.459-1.319,1.332-1.306.643.009.521-.448.521-.815,0-3.394-.047-6.79.006-10.184A37.152,37.152,0,0,0,1.965,28.31a8.063,8.063,0,0,1,.019-4.069A34.625,34.625,0,0,0,3.129,14.4c-.019-2.358-.012-4.716,0-7.073,0-.513-.05-.834-.7-.812A1.084,1.084,0,0,1,1.314,5.45,1,1,0,0,0,.74,4.573,1.7,1.7,0,0,1,.069,3.459a11.461,11.461,0,0,1-.037-2.1C.05.435.49.006,1.438,0Zm.777,6.507c-4.831.006-8.163,2.918-8.74,6.915a7.5,7.5,0,0,0,1.544,5.913c1.472,1.876,3.041,3.674,4.563,5.509a4.67,4.67,0,0,1,.044,6.19c-1.254,1.521-2.536,3.014-3.812,4.517a9,9,0,0,0-2.377,5.36,8.075,8.075,0,0,0,7.177,8.5,7.955,7.955,0,0,0,7.826-4.056,7.7,7.7,0,0,0-.642-8.887c-1.416-1.851-2.972-3.6-4.46-5.394a4.638,4.638,0,0,1,.012-6.237c1.553-1.879,3.206-3.686,4.622-5.661a7.637,7.637,0,0,0,.546-8.439,7.427,7.427,0,0,0-6.3-4.237Zm5.9.037c.287.324.412.479.552.622a10.224,10.224,0,0,1,.833,13.892c-1.379,1.748-2.86,3.415-4.276,5.136-1.12,1.359-1.1,2.311.034,3.664q2,2.384,4,4.756a10.073,10.073,0,0,1-.424,13.873c-.181.19-.34.4-.624.75.474.047.745.1,1.017.1,1.039.006,2.08-.04,3.116.006.78.037.961-.3.958-1.017-.031-4.168-.022-8.34-.034-12.511a34.04,34.04,0,0,0-1.085-7.428,13.208,13.208,0,0,1-.034-4.059c.1-1.07.6-2.1.7-3.17.221-2.261.356-4.538.421-6.812.069-2.355.028-4.713-.006-7.07,0-.249-.274-.7-.434-.706-1.5-.056-3-.031-4.725-.031ZM10.39,49.462c.022-.072.044-.143.069-.215-.2-.218-.4-.439-.611-.65a10.268,10.268,0,0,1-2.941-7.151,10.148,10.148,0,0,1,2.626-6.884c1.322-1.562,2.642-3.129,3.942-4.709,1.17-1.422,1.185-2.24.034-3.652-1.388-1.711-2.826-3.378-4.22-5.083a10.173,10.173,0,0,1,.742-13.886c.168-.171.321-.355.621-.684-1.609,0-3,.028-4.4-.012-.677-.019-.833.261-.83.874.019,3.16-.037,6.321.022,9.481.028,1.418.3,2.831.4,4.246.134,1.807,1.269,3.49.674,5.394-.047.149.09.348.1.529a3.977,3.977,0,0,1-.006,1.291A26.681,26.681,0,0,0,5.453,36c-.047,3.86-.016,7.72-.019,11.581a1.666,1.666,0,0,0,1.884,1.885H10.39Z" transform="translate(467.718 40)" fill="#000612"/><path d="M19.914,57.483a6.721,6.721,0,0,1-6.572-5.269,2.713,2.713,0,0,1,1.17-3,44.209,44.209,0,0,1,3.805-2.261,3.369,3.369,0,0,1,3.418.121c1.008.585,2.015,1.176,3.026,1.754A3.122,3.122,0,0,1,26.3,52.979a6.852,6.852,0,0,1-6.388,4.5Z" transform="translate(465.066 30.69)" fill="#000612"/><path d="M24.612,25.164a3.956,3.956,0,0,1-.424.84c-.867,1.1-1.762,2.171-2.667,3.241a1.114,1.114,0,0,1-1.862.037c-.964-1.086-1.909-2.187-2.81-3.325a1.288,1.288,0,0,1,.848-2.246A15.188,15.188,0,0,1,23.43,23.7a1.336,1.336,0,0,1,1.182,1.462Z" transform="translate(464.432 35.313)" fill="#000612"/><path d="M20.247,42.574a1.008,1.008,0,0,1,1.079-1.067,1.084,1.084,0,0,1,1.123,1.051A1.194,1.194,0,0,1,21.3,43.7a1.137,1.137,0,0,1-1.057-1.132Z" transform="translate(463.669 31.699)" fill="#000612"/></g></svg>